<?xml version="1.0" encoding="utf-8"?>
<!-- Generator: Adobe Illustrator 22.0.1, SVG Export Plug-In . SVG Version: 6.00 Build 0)  -->
<svg version="1.1" id="Layer_1" xmlns="http://www.w3.org/2000/svg" xmlns:xlink="http://www.w3.org/1999/xlink" x="0px" y="0px"
	 viewBox="0 0 61.3 35.8" style="enable-background:new 0 0 61.3 35.8;" xml:space="preserve">
<path d="M40,34.9c-4,0-7.2-3.2-7.2-7.2V8.1c0-4,3.2-7.2,7.2-7.2h13.2c4,0,7.2,3.2,7.2,7.2v3.6h-5.5v-0.9c0-2.5-1.5-4-4-4h-8.5
	c-2.5,0-4,1.5-4,4v14.4c0,2.5,1.5,4,4,4h8.5c2.5,0,4-1.5,4-4v-1.3h5.5v3.9c0,4-3.2,7.2-7.2,7.2H40"/>
<path d="M7.6,22c0,0-0.2,0.2-0.1,0.4c0.1,0.2,0.2,0.2,0.4,0.2h11.3c0.6,0,1.2-0.5,1.2-1.1l0-12.9c0-0.1-0.1-0.3-0.3-0.3
	c-0.3,0-0.6,0.3-0.6,0.3L7.6,22 M18.9,2.3c0.7-0.9,1.8-1.4,3-1.4c2.1,0,3.9,1.7,3.9,3.8l0,0.1v16.7c0,0.7,0.5,1.2,1.2,1.2h3.7v4.9
	H27c-0.7,0-1.2,0.5-1.2,1.2h0V35h-5.4v-6.3c0-0.6-0.6-1.1-1.2-1.1H4.5c-2,0-3.6-1.6-3.6-3.6c0-0.8,0.3-1.5,0.8-2.2L18.9,2.3z"/>
</svg>
