<svg width="435" height="177" xmlns="http://www.w3.org/2000/svg" xmlns:xlink="http://www.w3.org/1999/xlink" overflow="hidden"><defs><clipPath id="clip0"><rect x="440" y="262" width="435" height="177"/></clipPath></defs><g clip-path="url(#clip0)" transform="translate(-440 -262)"><path d="M517.76 437.409 517.761 437.409 517.76 437.409ZM712.639 409.582 707.31 422.118 718.063 422.118 712.639 409.582ZM501.34 409.582 496.02 422.118 506.766 422.118 501.341 409.582ZM740.434 405.582C739.119 405.595 737.775 405.656 736.754 405.707 736.754 405.707 736.754 416.02 736.754 418.598L736.754 419.177 736.754 419.177 736.754 419.177 736.754 419.177 739.222 419.256C740.401 419.25 741.806 419.177 743.054 418.932 746.632 418.202 749.312 415.745 749.312 411.93 749.312 408.546 747.595 406.34 743.934 405.747 743.032 405.605 741.748 405.569 740.434 405.582ZM585.223 404.774C576.631 404.774 571.448 411.292 571.448 421.232 571.448 431.189 577.506 436.372 584.79 436.372 595.105 436.372 598.819 425.694 598.472 420.307 598.472 416.249 597.936 412.809 595.396 409.526L595.396 409.526C592.956 406.443 589.144 404.774 585.223 404.774ZM787.701 403.895C788.387 403.936 789.123 404.039 789.852 404.039 790.535 404.039 791.222 403.936 792 403.895 792 403.895 792 437.409 792 437.409 791.222 437.353 790.535 437.258 789.852 437.258 789.123 437.258 788.387 437.353 787.701 437.409 787.701 437.409 787.701 403.895 787.701 403.895ZM757.025 403.895C757.025 403.895 782.249 403.895 782.249 403.895 782.2 404.432 782.109 404.87 782.109 405.366 782.109 405.85 782.2 406.34 782.249 406.83 779.809 406.538 776.383 406.245 772.041 406.245 772.041 406.245 772.041 437.504 772.041 437.504L772.04 437.504 772.04 437.504C771.256 437.456 770.569 437.353 769.88 437.353 769.152 437.353 768.421 437.456 767.736 437.504 767.736 437.504 767.736 406.245 767.736 406.245 762.805 406.245 759.823 406.537 757.025 406.83 757.086 406.34 757.177 405.85 757.177 405.366 757.177 404.87 757.086 404.432 757.025 403.895ZM732.445 403.895 732.446 403.895C732.446 403.895 742.807 403.895 742.807 403.895 750.34 403.895 753.66 406.388 753.66 411.339 753.66 417.018 748.581 419.77 743.642 420.648 743.642 420.648 753.711 433.437 753.711 433.437 753.711 433.437 756.058 436.181 756.058 436.181 756.058 436.181 756.98 437.409 756.98 437.409 755.96 437.353 755.078 437.258 754.148 437.258 753.222 437.258 752.246 437.353 751.353 437.409 750.284 435.888 749.311 434.507 748.275 433.137 748.275 433.137 742.516 425.647 742.516 425.647 742.516 425.647 738.605 421.049 738.605 421.049 738.605 421.049 736.754 421.049 736.754 421.049 736.754 421.049 736.754 437.409 736.754 437.409 735.966 437.353 735.285 437.258 734.6 437.258 733.864 437.258 733.131 437.353 732.445 437.409 732.445 437.409 732.445 403.895 732.445 403.895ZM661.619 403.895C661.619 403.895 662.891 403.895 662.891 403.895 666.802 411.693 671.495 420.893 676.717 429.569 681.372 421.18 685.866 412.668 690.799 403.895L691.827 403.895C693.099 415.99 694.471 428.051 695.785 437.409 694.902 437.353 694.217 437.258 693.489 437.258 692.701 437.258 691.925 437.353 691.195 437.409 690.367 427.555 689.373 416.977 688.692 412.128 683.024 422.268 678.82 430.1 675.89 436.869 675.89 436.869 675.354 436.869 675.354 436.869 675.354 436.869 672.668 431.326 672.668 431.326 669.533 424.87 666.115 418.497 662.792 412.128 661.717 421.676 660.398 431.373 660.398 437.409 659.768 437.353 659.224 437.258 658.695 437.258 658.059 437.258 657.516 437.353 656.932 437.409 658.197 429.521 661.129 409.036 661.619 403.895ZM542.008 403.895C542.008 403.895 567.224 403.895 567.224 403.895 567.171 404.432 567.079 404.87 567.079 405.366 567.079 405.85 567.171 406.34 567.224 406.83 564.778 406.538 561.364 406.245 557.014 406.245 557.014 406.245 557.014 437.504 557.014 437.504 556.228 437.456 555.549 437.353 554.862 437.353 554.125 437.353 553.389 437.456 552.713 437.504 552.713 437.504 552.713 406.245 552.713 406.245 547.774 406.245 544.787 406.537 542.008 406.83 542.056 406.34 542.154 405.85 542.154 405.366 542.154 404.87 542.056 404.432 542.008 403.895ZM798.919 403.894C798.919 403.894 800.83 403.894 800.83 403.894 800.83 403.894 824.041 429.126 824.041 429.126 824.041 429.126 824.533 429.126 824.533 429.126 824.533 429.126 824.533 403.894 824.533 403.894 824.97 403.936 825.407 404.039 825.904 404.039 826.347 404.039 826.786 403.936 827.27 403.894 827.27 403.894 827.27 437.408 827.27 437.408L827.271 437.409C827.271 437.409 825.798 437.409 825.798 437.409 825.262 436.727 824.281 435.549 823.262 434.418 823.262 434.418 802.141 410.991 802.141 410.991 802.141 410.991 801.663 410.991 801.663 410.991 801.663 410.991 801.663 437.408 801.663 437.408 801.172 437.353 800.733 437.258 800.286 437.258 799.802 437.258 799.356 437.353 798.919 437.408 798.919 437.408 798.919 403.894 798.919 403.894ZM608.4 403.894C608.4 403.894 610.311 403.894 610.311 403.894 610.311 403.894 633.52 429.126 633.52 429.126 633.52 429.126 634.014 429.126 634.014 429.126 634.014 429.126 634.014 403.894 634.014 403.894 634.451 403.936 634.89 404.039 635.375 404.039 635.812 404.039 636.257 403.936 636.751 403.894 636.751 403.894 636.751 437.408 636.751 437.408L636.751 437.409C636.751 437.409 635.276 437.409 635.276 437.409 634.745 436.727 633.764 435.549 632.742 434.418 632.742 434.418 611.624 410.991 611.624 410.991 611.624 410.991 611.138 410.991 611.138 410.991 611.138 410.991 611.138 437.408 611.138 437.408 610.65 437.353 610.206 437.258 609.767 437.258 609.283 437.258 608.845 437.353 608.4 437.408 608.4 437.408 608.4 403.894 608.4 403.894ZM713.271 403.168C713.271 403.168 714.395 403.168 714.395 403.168 714.395 403.168 729.06 437.409 729.06 437.409 728.125 437.353 727.355 437.258 726.512 437.258 725.587 437.258 724.756 437.353 723.935 437.409 722.511 433.335 720.746 428.636 718.793 424.176 718.793 424.176 706.387 424.176 706.387 424.176 704.671 428.486 702.907 432.797 701.544 437.409 700.859 437.353 700.323 437.258 699.739 437.258 699.105 437.258 698.559 437.353 698.029 437.409 698.029 437.409 713.271 403.168 713.271 403.168ZM531.45 403.168C533.789 403.168 536.633 403.895 538.431 405.51 537.846 406.783 537.507 408.151 537.117 409.527 537.117 409.527 536.633 409.527 536.633 409.527 535.605 406.878 533.457 405.265 530.574 405.265 527.198 405.265 524.418 407.524 524.418 410.991 524.418 420.016 539.807 416.386 539.807 426.825 539.807 433.833 534.372 438 527.732 438 525.343 438 521.432 436.972 519.77 435.153 520.251 433.73 520.499 432.259 520.696 430.789 520.696 430.789 521.188 430.789 521.188 430.789L521.188 430.788C523.09 433.928 525.286 435.888 529.108 435.888 533.06 435.888 535.896 432.599 535.896 428.733 535.896 419.62 520.597 423.645 520.597 412.565 520.597 406.245 525.584 403.168 531.45 403.168ZM501.977 403.168C501.977 403.168 503.103 403.168 503.103 403.168 503.103 403.168 515.985 433.262 517.596 437.024L517.76 437.409 515.22 437.258C514.295 437.258 513.464 437.353 512.629 437.409 511.217 433.335 509.454 428.636 507.497 424.176 507.497 424.176 495.089 424.176 495.089 424.176 493.377 428.486 491.615 432.797 490.25 437.409 489.565 437.353 489.029 437.258 488.439 437.258 487.804 437.258 487.265 437.353 486.729 437.409 486.729 437.409 501.977 403.168 501.977 403.168ZM584.739 403.167C593.931 403.167 603.259 408.15 603.259 419.912 603.259 430.836 595.542 437.999 584.65 437.999 573.847 437.999 566.656 431.136 566.656 420.647L566.655 420.648C566.655 409.916 574.617 403.167 584.739 403.167ZM640.921 341.521C640.921 341.521 637.931 352.329 637.931 352.329 637.843 352.698 637.261 355.079 635.589 356.972 636.839 356.634 638.131 356.005 639.281 354.883 639.281 354.883 649.259 345.326 652.356 342.369 648.488 342.24 644.671 341.955 640.921 341.521ZM673.072 341.508C669.322 341.948 665.505 342.234 661.635 342.37 664.393 345.003 672.523 352.791 672.523 352.791L672.523 352.791C675.419 355.637 676.113 356.318 678.404 356.973 676.743 355.085 676.147 352.712 676.062 352.335 676.062 352.335 673.072 341.508 673.072 341.508ZM623.377 338.182C619.899 344.101 617.334 348.452 617.342 348.445 617.128 348.84 615.885 350.993 614.04 352.505 614.04 352.505 629.139 356.634 629.139 356.634 630.489 356.946 631.625 356.809 632.604 356.214 634.762 354.891 635.45 351.791 635.45 351.759L635.45 351.759C635.45 351.759 638.373 341.189 638.373 341.189 633.26 340.484 628.259 339.479 623.377 338.182ZM690.606 338.174C685.726 339.471 680.733 340.476 675.62 341.189 675.62 341.189 678.543 351.778 678.543 351.778 678.583 351.953 679.282 354.923 681.385 356.214 682.364 356.809 683.504 356.946 684.854 356.634L684.854 356.634C684.854 356.634 699.953 352.505 699.953 352.505 698.107 351.001 696.878 348.848 696.669 348.479 696.669 348.479 690.606 338.174 690.606 338.174ZM706.851 332.578C702.399 334.491 697.823 336.113 693.141 337.468 693.141 337.468 698.873 347.206 698.873 347.206 699.548 348.439 701.877 351.746 703.883 351.428L703.883 351.428C703.883 351.428 721.158 346.694 721.158 346.694 719.366 345.676 718.128 344.387 718.029 344.289 718.029 344.289 706.851 332.578 706.851 332.578ZM607.143 332.578C600.903 339.107 595.964 344.283 595.964 344.283 595.87 344.379 594.627 345.67 592.835 346.694 592.835 346.694 610.11 351.428 610.11 351.428L610.11 351.428 610.111 351.427C612.115 351.745 614.444 348.439 615.139 347.181 615.139 347.181 620.846 337.474 620.846 337.474 616.163 336.118 611.599 334.485 607.143 332.578ZM593.549 325.713C583.539 332.902 574.558 339.354 574.571 339.341 574.482 339.413 573.388 340.237 571.787 340.937 571.787 340.937 587.838 345.326 587.838 345.326L587.838 345.327C590.248 345.904 593.184 343.512 594.123 342.518 594.123 342.518 604.668 331.489 604.668 331.489 600.871 329.765 597.166 327.832 593.549 325.713ZM720.444 325.713C716.827 327.84 713.122 329.765 709.331 331.489 715.258 337.702 719.87 342.518 719.87 342.518 720.809 343.512 723.745 345.904 726.151 345.326 726.151 345.326 729.008 344.549 729.008 344.549L729.008 344.549 729.008 344.548C729.008 344.548 737.983 342.09 742.205 340.937 740.61 340.242 739.524 339.426 739.448 339.362 739.448 339.362 720.444 325.713 720.444 325.713ZM579.726 316.259C569.507 321.064 559.233 325.88 559.254 325.875 559.115 325.946 556.993 327.015 554.426 327.503 555.669 328.922 556.224 330.401 556.312 330.648 557.39 333.422 558.526 336.281 566.106 339.153 569.249 340.147 573.004 337.344 573.062 337.286 573.062 337.286 591.174 324.279 591.174 324.279 587.252 321.854 583.427 319.176 579.726 316.259ZM734.273 316.259C730.562 319.176 726.738 321.849 722.817 324.279 732.467 331.21 740.942 337.299 740.955 337.312 740.987 337.344 744.724 340.133 747.866 339.153 755.478 336.281 756.609 333.416 757.689 330.635L757.689 330.635C757.788 330.348 758.343 328.903 759.567 327.503 757.006 327.023 754.891 325.952 754.779 325.894 754.779 325.894 734.273 316.259 734.273 316.259ZM744.763 307.065C742.193 309.574 739.435 312.056 736.482 314.488 746.314 319.105 755.889 323.605 755.889 323.605 757.132 324.233 760.876 325.705 763.417 325.013L763.417 325.013C763.417 325.013 783.651 319.041 783.651 319.041 782.618 318.808 781.943 318.587 781.872 318.561 781.872 318.561 744.763 307.065 744.763 307.065ZM569.235 307.065C562.224 309.237 532.121 318.561 532.153 318.548 532.076 318.574 531.388 318.808 530.342 319.041 541.309 322.276 549.817 324.785 550.582 325.013L550.582 325.013 550.581 325.013C553.122 325.706 556.858 324.233 558.141 323.586 558.141 323.586 577.516 314.483 577.516 314.483 574.563 312.056 571.805 309.568 569.235 307.065ZM658.27 306.903C658.27 306.903 658.27 339.893 658.27 339.893 663.064 339.848 667.768 339.556 672.384 339.025 672.384 339.025 663.516 306.903 663.516 306.903 663.516 306.903 658.27 306.903 658.27 306.903ZM650.483 306.903C650.483 306.903 641.609 339.025 641.609 339.025L641.609 339.025 641.609 339.025C646.223 339.551 650.926 339.848 655.729 339.887 655.729 339.887 655.729 306.903 655.729 306.903 655.729 306.903 650.483 306.903 650.483 306.903ZM720.337 306.903C723.877 308.569 728.838 310.889 733.925 313.283 734.09 313.146 739.122 309.03 741.254 306.903 741.254 306.903 729.488 306.903 723.605 306.903ZM698.628 306.903 698.628 306.903C703.386 310.319 712.202 316.654 720.57 322.672 724.377 320.357 728.082 317.816 731.686 315.047 731.686 315.047 714.347 306.903 714.347 306.903 714.347 306.903 705.505 306.903 701.084 306.903ZM685.839 306.903C690.112 311.37 699.591 321.297 707.462 329.532 711.111 327.911 714.69 326.089 718.173 324.085 718.173 324.085 694.272 306.903 694.272 306.903 694.272 306.903 685.839 306.903 685.839 306.903ZM675.155 306.903C675.155 306.903 691.804 335.198 691.804 335.198 696.297 333.92 700.688 332.398 704.964 330.608 704.964 330.608 682.317 306.903 682.317 306.903 682.317 306.903 675.155 306.903 675.155 306.903ZM672.206 306.903 672.206 306.903C672.206 306.903 666.148 306.903 666.148 306.903 666.148 306.903 674.932 338.707 674.932 338.707 679.812 338.039 684.595 337.105 689.266 335.886 689.266 335.886 672.206 306.903 672.206 306.903ZM641.787 306.903C639.648 310.539 631.119 325.039 624.728 335.893 629.398 337.105 634.173 338.039 639.061 338.707 639.061 338.707 647.845 306.903 647.845 306.903 647.845 306.903 641.787 306.903 641.787 306.903ZM631.674 306.903 631.674 306.903C629.036 309.664 618.108 321.102 609.025 330.601 613.311 332.398 617.697 333.928 622.189 335.198 622.189 335.198 638.838 306.903 638.838 306.903 638.838 306.903 631.674 306.903 631.674 306.903ZM619.722 306.903 619.722 306.903C617.003 308.855 606.19 316.628 595.817 324.085 599.312 326.089 602.883 327.911 606.539 329.532 606.539 329.532 628.155 306.903 628.155 306.903 628.155 306.903 619.722 306.903 619.722 306.903ZM572.74 306.903C574.868 308.9 579.878 313.127 580.069 313.283 580.069 313.283 593.654 306.903 593.654 306.903 593.654 306.903 572.74 306.903 572.74 306.903ZM599.647 306.903C598.173 307.595 590.546 311.175 582.309 315.047 585.907 317.815 589.612 320.356 593.422 322.665 593.422 322.665 615.362 306.903 615.362 306.903 615.362 306.903 599.647 306.903 599.647 306.903ZM562.15 299.621C546.018 302.947 507.279 310.942 507.284 310.935 507.166 310.961 506.036 311.194 504.453 311.414 510.386 313.167 516.676 315.021 522.642 316.777L522.642 316.777 522.641 316.777C526.4 317.776 531.286 316.148 531.367 316.123 531.367 316.123 567.192 305.029 567.192 305.029 565.418 303.22 563.746 301.416 562.15 299.621ZM751.848 299.621C750.26 301.423 748.575 303.22 746.801 305.029 746.801 305.029 782.586 316.11 782.586 316.11 782.591 316.11 782.599 316.116 782.599 316.116 782.599 316.116 782.657 316.135 782.657 316.135 782.704 316.148 787.611 317.782 791.37 316.771L791.37 316.771C791.37 316.771 809.536 311.414 809.536 311.414 807.957 311.194 806.834 310.961 806.714 310.942 806.714 310.942 751.848 299.621 751.848 299.621ZM746.446 298.513C746.446 298.513 746.446 301.748 746.446 301.748 747.312 300.846 748.158 299.932 748.971 299.03 748.971 299.03 746.446 298.513 746.446 298.513ZM567.528 298.513C566.872 298.648 566.031 298.818 565.028 299.03 565.835 299.926 566.669 300.828 567.528 301.721 567.528 301.721 567.528 298.513 567.528 298.513ZM844.633 293.804 844.633 293.804 844.633 293.804ZM556.885 293.313C556.885 293.313 478.739 303.841 478.739 303.841 481.534 304.66 488.085 306.585 496.145 308.972L496.145 308.972C499.081 309.744 504.785 308.861 506.769 308.447 506.769 308.447 560.238 297.41 560.238 297.41 559.07 296.028 557.952 294.66 556.885 293.313ZM757.119 293.312C756.054 294.668 754.931 296.036 753.761 297.415 770.626 300.897 807.224 308.446 807.224 308.446 808.219 308.653 810.149 308.978 812.196 309.153L817.872 308.964 817.872 308.964 817.872 308.964 817.872 308.964 817.872 308.964 820.588 308.164C825.476 306.723 835.254 303.841 835.254 303.841 835.254 303.841 757.119 293.312 757.119 293.312ZM746.446 291.879C746.446 291.879 746.446 295.912 746.446 295.912 747.383 296.106 748.92 296.418 750.916 296.832 752.054 295.517 753.145 294.215 754.185 292.923 754.185 292.923 746.446 291.879 746.446 291.879ZM567.528 291.878C567.528 291.878 559.816 292.923 559.816 292.923 560.855 294.214 561.941 295.511 563.077 296.832 563.077 296.832 567.528 295.911 567.528 295.911 567.528 295.911 567.528 291.878 567.528 291.878ZM682.841 287.328C682.609 287.872 680.657 292.457 680.505 292.825 680.89 292.825 684.823 292.825 685.215 292.825 685.056 292.456 683.074 287.872 682.841 287.328ZM580.691 287.328C580.458 287.872 578.508 292.457 578.356 292.825L583.064 292.825C582.907 292.456 580.919 287.872 580.691 287.328ZM761.936 286.854C760.989 288.195 759.979 289.584 758.912 290.985 758.912 290.985 836.717 301.462 836.717 301.462 839.692 301.858 840.605 300.86 840.771 300.64 841.273 299.755 843.206 296.338 844.132 294.696L844.633 293.804 844.633 293.804C844.905 293.287 845.215 292.846 845.554 292.457 845.057 292.412 844.709 292.372 844.588 292.359 844.588 292.359 761.936 286.854 761.936 286.854ZM552.071 286.853C552.071 286.853 468.937 292.411 468.438 292.456 468.762 292.833 469.076 293.26 469.34 293.772 469.34 293.772 473.229 300.645 473.229 300.645 473.399 300.878 474.327 301.857 477.282 301.462L477.282 301.462 477.282 301.462C477.282 301.462 555.088 290.984 555.088 290.984 554.021 289.576 553.018 288.195 552.071 286.853ZM746.446 285.824C746.446 285.824 746.446 289.311 746.446 289.311 746.446 289.311 756.016 290.602 756.016 290.602 757.046 289.258 758.034 287.942 758.959 286.653 758.959 286.653 746.446 285.824 746.446 285.824ZM567.528 285.824 565.578 285.953C562.068 286.187 555.049 286.653 555.049 286.653 555.973 287.942 556.952 289.258 557.984 290.602 557.984 290.602 567.528 289.311 567.528 289.311 567.528 289.311 567.528 287.349 567.528 286.369ZM694.661 285.252C694.661 285.512 694.661 291.165 694.661 291.425 695.256 291.465 696.485 291.502 697.504 291.295 699.313 290.932 700.387 289.733 700.387 288.092 700.387 286.49 699.56 285.538 697.937 285.273 697.123 285.143 695.627 285.206 694.661 285.252ZM621.249 284.812C617.266 284.812 614.786 287.776 614.786 292.554 614.786 296.866 617.24 299.653 621.035 299.653 621.896 299.653 622.688 299.498 623.409 299.189L625.357 297.805 625.357 297.805 625.357 297.805 625.357 297.805 626.957 295.119C627.299 294.17 627.458 293.222 627.458 292.438 627.458 292.327 627.453 292.21 627.445 292.107 627.445 290.181 627.2 288.572 625.996 287.029 624.901 285.642 623.127 284.812 621.249 284.812ZM692.32 284.092C692.32 284.092 697.42 284.092 697.42 284.092 701.017 284.092 702.761 285.318 702.761 287.813 702.761 290.083 701.004 291.762 698.066 292.359L698.067 292.359C698.344 292.703 704.509 300.431 704.509 300.431 704.509 300.431 701.522 300.431 701.522 300.431 701.522 300.431 701.441 300.431 701.441 300.431 701.441 300.431 699.927 298.343 699.927 298.343 699.927 298.343 697.161 294.751 697.168 294.758 697.168 294.758 695.421 292.696 695.344 292.6 695.243 292.6 694.845 292.6 694.661 292.6 694.661 292.884 694.661 300.431 694.661 300.431 694.661 300.431 692.32 300.431 692.32 300.431 692.32 300.431 692.32 284.092 692.32 284.092ZM724.06 284.092C724.06 284.092 725.185 284.092 725.185 284.092 725.185 284.092 736.217 296.086 736.305 296.184 736.311 296.184 736.316 296.184 736.324 296.184 736.324 295.898 736.324 284.092 736.324 284.092 736.324 284.092 737.925 284.092 737.925 284.092 737.925 284.092 737.925 300.43 737.925 300.43 737.925 300.43 737.012 300.43 737.012 300.43 737.012 300.43 735.761 298.966 735.761 298.966 735.761 298.966 725.776 287.885 725.689 287.787 725.682 287.787 725.676 287.787 725.663 287.787 725.663 288.078 725.663 300.43 725.663 300.43 725.663 300.43 724.06 300.43 724.06 300.43 724.06 300.43 724.06 284.092 724.06 284.092ZM718.387 284.092 720.602 284.092 720.602 300.431 718.387 300.431ZM704.085 284.092C704.085 284.092 716.309 284.092 716.309 284.092L716.31 284.092C716.31 284.092 716.456 284.092 716.456 284.092 716.456 284.092 716.456 285.816 716.456 285.816 716.456 285.816 716.291 285.797 716.291 285.797 714.808 285.614 713.22 285.518 711.566 285.518 711.566 285.81 711.566 300.483 711.566 300.483 711.566 300.483 709.206 300.483 709.206 300.483 709.206 300.483 709.206 285.802 709.206 285.511 707.003 285.518 705.649 285.648 704.244 285.797 704.244 285.797 704.085 285.81 704.085 285.81 704.085 285.81 704.085 284.092 704.085 284.092ZM658.018 284.092C658.018 284.092 658.845 284.092 658.845 284.092 658.845 284.092 658.885 284.169 658.885 284.169 660.75 287.885 662.94 292.17 665.372 296.243 665.599 295.834 668.092 291.268 668.092 291.268 668.092 291.268 672.035 284.092 672.035 284.092 672.035 284.092 672.611 284.092 672.611 284.092L672.612 284.092C672.612 284.092 672.743 284.092 672.743 284.092 672.743 284.092 672.756 284.227 672.756 284.227 673.476 291.061 674.089 296.306 674.652 300.268 674.652 300.268 674.674 300.43 674.674 300.43 674.674 300.43 672.18 300.43 672.18 300.43 672.18 300.43 672.165 300.3 672.165 300.3 671.893 297.078 671.4 291.456 671.027 288.643 668.397 293.363 666.476 296.948 665.114 300.088 665.114 300.088 665.076 300.178 665.076 300.178 665.076 300.178 664.634 300.178 664.634 300.178 664.634 300.178 663.31 297.441 663.31 297.441 662.14 295.036 659.078 289.2 658.801 288.669 658.726 289.311 658.542 290.918 658.542 290.918 658.109 294.556 657.702 297.987 657.702 300.289 657.702 300.289 657.702 300.43 657.702 300.43 657.702 300.43 655.73 300.43 655.73 300.43 655.73 300.43 655.761 300.268 655.761 300.268 656.373 296.476 657.773 286.64 658.006 284.227 658.006 284.227 658.018 284.092 658.018 284.092ZM632.584 284.092C632.584 284.092 633.707 284.092 633.707 284.092 633.707 284.092 644.743 296.086 644.828 296.184 644.835 296.184 644.841 296.184 644.854 296.184 644.854 295.898 644.854 284.092 644.854 284.092 644.854 284.092 646.311 284.092 646.311 284.092L646.311 284.092C646.311 284.092 646.455 284.092 646.455 284.092 646.455 284.092 646.455 300.43 646.455 300.43 646.455 300.43 645.604 300.43 645.604 300.43 645.604 300.43 645.529 300.43 645.529 300.43 645.529 300.43 644.278 298.966 644.278 298.966 644.278 298.966 634.306 287.885 634.219 287.787 634.207 287.787 634.199 287.787 634.186 287.787 634.186 288.078 634.186 300.43 634.186 300.43 634.186 300.43 632.584 300.43 632.584 300.43 632.584 300.43 632.584 284.092 632.584 284.092ZM600.376 284.092C600.376 284.092 612.596 284.092 612.596 284.092 612.596 284.092 612.742 284.092 612.742 284.092 612.742 284.092 612.742 285.816 612.742 285.816 612.742 285.816 612.577 285.797 612.577 285.797 611.094 285.614 609.508 285.518 607.849 285.518 607.849 285.81 607.849 300.483 607.849 300.483 607.849 300.483 605.502 300.483 605.502 300.483 605.502 300.483 605.502 285.802 605.502 285.511 603.291 285.518 601.936 285.648 600.533 285.797 600.533 285.797 600.376 285.81 600.376 285.81 600.376 285.81 600.376 284.092 600.376 284.092ZM621.017 283.748C625.502 283.748 630.033 286.27 630.033 291.912 630.033 297.176 626.386 300.717 620.972 300.717 615.733 300.717 612.206 297.325 612.206 292.268 612.206 287.256 615.832 283.748 621.017 283.748ZM595.333 283.748C596.37 283.748 597.827 284.053 598.774 284.909 598.774 284.909 598.85 284.98 598.85 284.98 598.85 284.98 598.157 287.087 598.157 287.087 598.157 287.087 597.714 287.087 597.714 287.087 597.714 287.087 597.681 286.996 597.681 286.996 597.184 285.739 596.205 285.052 594.909 285.052 593.29 285.052 592.107 286.14 592.107 287.645 592.107 289.629 593.76 290.271 595.498 290.965 597.456 291.743 599.481 292.533 599.481 295.219 599.481 298.46 597.04 300.716 593.554 300.716 592.489 300.716 590.511 300.268 589.634 299.309L589.572 299.244 589.647 298.891C589.784 298.255 590.056 296.982 590.056 296.982 590.056 296.982 590.498 296.982 590.498 296.982 590.498 296.982 590.537 297.047 590.537 297.047 591.565 298.733 592.62 299.42 594.21 299.42 595.946 299.42 597.309 297.975 597.309 296.139 597.309 294.161 595.712 293.525 594.01 292.865 592.127 292.112 589.988 291.276 589.988 288.397 589.988 285.569 592.084 283.748 595.333 283.748ZM683.773 283.747C683.773 283.747 690.919 300.43 690.919 300.43 690.919 300.43 688.138 300.43 688.138 300.43 688.138 300.43 688.105 300.34 688.105 300.34 687.291 297.999 686.477 295.912 685.686 294.097 685.498 294.097 680.121 294.097 679.937 294.097 679.892 294.22 679.799 294.453 679.799 294.453 679.043 296.333 678.265 298.285 677.661 300.335 677.661 300.335 677.635 300.43 677.635 300.43 677.635 300.43 675.612 300.43 675.612 300.43 675.612 300.43 683.044 283.748 683.044 283.748 683.044 283.748 683.773 283.748 683.773 283.748ZM581.621 283.747C581.621 283.747 588.772 300.43 588.772 300.43 588.772 300.43 585.995 300.43 585.995 300.43 585.995 300.43 585.961 300.34 585.961 300.34 585.11 297.908 584.315 295.872 583.539 294.097 583.355 294.097 577.978 294.097 577.794 294.097 577.745 294.225 577.638 294.492 577.638 294.492 576.887 296.36 576.112 298.304 575.51 300.335 575.51 300.335 575.478 300.43 575.478 300.43 575.478 300.43 573.467 300.43 573.467 300.43 573.467 300.43 580.895 283.748 580.895 283.748 580.895 283.748 581.621 283.748 581.621 283.748ZM570.07 279.839C570.07 279.839 570.07 304.315 570.07 304.315 570.083 304.328 570.094 304.341 570.107 304.355L570.107 304.355 570.108 304.355C570.108 304.355 743.892 304.348 743.892 304.348 743.898 304.342 743.905 304.342 743.911 304.329 743.911 304.329 743.911 279.839 743.911 279.839 743.911 279.839 570.07 279.839 570.07 279.839ZM766.585 279.826C765.699 281.252 764.726 282.756 763.676 284.318 763.676 284.318 844.873 289.733 844.873 289.733 846.155 289.889 849.858 290.187 851.72 289.72 853.947 288.948 854.649 287.606 855.104 286.737 855.104 286.737 858.436 280.863 858.436 280.863L858.436 280.863 858.436 280.862C858.657 280.473 858.895 280.136 859.137 279.826 859.137 279.826 766.585 279.826 766.585 279.826ZM454.852 279.826C455.733 280.934 457.526 284.41 458.889 286.737 459.345 287.606 460.051 288.948 462.281 289.72L462.281 289.72 462.281 289.72C464.141 290.187 467.845 289.89 469.12 289.733 469.12 289.733 550.329 284.318 550.329 284.318 549.273 282.756 548.308 281.252 547.419 279.826 547.419 279.826 454.852 279.826 454.852 279.826ZM746.446 279.826C746.446 279.826 746.446 283.177 746.446 283.177 746.446 283.177 760.738 284.124 760.738 284.124 761.758 282.639 762.711 281.199 763.583 279.826 763.583 279.826 746.446 279.826 746.446 279.826ZM550.423 279.826C551.294 281.199 552.241 282.639 553.269 284.124 553.269 284.124 567.528 283.177 567.528 283.177L567.527 283.177C567.527 283.177 567.527 279.826 567.527 279.826 567.527 279.826 550.423 279.826 550.423 279.826ZM867.745 266.28C867.745 266.28 780.295 266.288 780.295 266.288 774.292 266.288 770.911 272.337 770.885 272.388 770.116 273.822 769.199 275.469 768.133 277.283 768.133 277.283 863.579 277.27 863.592 277.27 866.011 277.116 866.375 276.675 866.963 275.702 866.963 275.702 870.066 270.52 870.111 270.449L870.111 270.449 870.112 270.449C870.593 269.555 870.742 268.892 870.742 268.426 870.742 267.901 870.561 267.609 870.484 267.468 869.854 266.423 868.662 266.32 867.745 266.28ZM692.365 266.28C688.306 266.28 685.057 267.474 682.722 269.82 681.037 271.512 679.863 273.75 679.25 276.479L679.25 276.479 679.25 276.48C679.25 276.48 679.144 276.967 678.966 277.283 678.966 277.283 765.163 277.283 765.163 277.283 766.55 274.981 767.717 272.926 768.65 271.17 768.747 270.995 770.203 268.362 772.974 266.28 731.615 266.28 692.365 266.28 692.365 266.28ZM541.025 266.28C543.796 268.361 545.253 270.995 545.349 271.169 545.349 271.169 547.52 275.111 548.838 277.283 548.838 277.283 635.034 277.283 635.034 277.283 634.874 276.946 634.749 276.479 634.749 276.479 634.126 273.75 632.956 271.512 631.27 269.82 628.935 267.473 625.693 266.28 621.626 266.28L621.626 266.28 621.626 266.28C621.626 266.28 582.384 266.28 541.025 266.28ZM446.249 266.28C444.12 266.312 443.312 267.232 443.258 268.425 443.237 268.892 443.397 269.555 443.88 270.449 444.113 270.833 447.03 275.702 447.023 275.694 447.373 276.272 447.667 276.627 448.152 276.859L450.427 277.283 450.428 277.282C450.428 277.282 545.873 277.282 545.873 277.282 544.8 275.468 543.883 273.821 543.114 272.387 543.114 272.387 539.623 266.287 533.704 266.287 533.704 266.287 446.249 266.28 446.249 266.28ZM446.161 263C446.161 263 621.628 263 621.628 263 626.596 263 630.611 264.511 633.579 267.5 635.711 269.632 637.179 272.414 637.938 275.766 637.951 275.845 638.157 276.545 639.659 276.545L674.341 276.545C675.843 276.545 676.049 275.845 676.062 275.766 676.821 272.414 678.289 269.632 680.421 267.5 683.389 264.511 687.403 263 692.372 263 692.372 263 867.839 263 867.839 263 868.962 263.039 871.759 263.233 873.287 265.774 874.013 267.012 874.557 269.102 872.984 272.019 872.971 272.045 869.77 277.388 869.77 277.388 868.465 279.539 866.964 280.338 863.808 280.539 863.763 280.545 862.299 280.695 861.275 282.483 861.275 282.483 858.002 288.254 858.002 288.254 857.314 289.577 855.686 292.682 850.137 293.436 850.043 293.449 848.425 293.629 847.531 295.336 847.518 295.355 843.49 302.475 843.49 302.475 842.313 304.764 840.665 305.613 837.671 306.54 837.665 306.54 764.284 328.164 764.284 328.164 761.791 328.904 760.773 331.73 760.773 331.73 759.02 336.275 756.743 340.017 745.288 343.486 745.28 343.491 685.251 359.93 685.251 359.93 684.516 360.174 677.64 362.275 672.462 357.257 672.462 357.257 658.419 343.804 658.383 343.777 658.377 343.764 657.794 343.168 657.001 343.168L656.999 343.168C656.206 343.168 655.622 343.764 655.617 343.777 655.581 343.804 641.538 357.257 641.538 357.257 636.36 362.275 629.484 360.174 628.749 359.93 628.749 359.93 568.72 343.491 568.712 343.486 557.257 340.017 554.98 336.276 553.227 331.73 553.227 331.73 552.209 328.904 549.716 328.164 549.716 328.164 476.335 306.54 476.329 306.54 473.335 305.612 471.687 304.764 470.51 302.475 470.51 302.475 466.482 295.355 466.469 295.336 465.575 293.629 463.957 293.449 463.863 293.436 458.314 292.682 456.686 289.577 455.998 288.254 455.998 288.254 452.725 282.483 452.725 282.483 451.701 280.695 450.237 280.545 450.192 280.539 447.036 280.338 445.534 279.54 444.23 277.388 444.23 277.388 441.029 272.045 441.016 272.019 439.443 269.102 439.987 267.012 440.712 265.774 442.24 263.233 445.038 263.039 446.161 263Z" fill-rule="evenodd"/></g></svg>