<svg width="500" height="88" version="1.1" viewBox="0 0 500 88" xmlns="http://www.w3.org/2000/svg">
 <path d="m498.83 2.9322c-1.2735-1.6248-3.4283-2.4486-6.3841-2.4486h-0.0371c-0.548 0-5.3781 0.12589-9.0869 4.4679l-21.2 24.179-11.227-23.167c-0.2674-0.63672-2.5301-5.5603-7.9778-5.5603-5.4656 0-9.1804 3.6165-9.8927 7.0172l-6.5244 30.853h9.9071l5.7702-27.415 12.357 25.261c0.38851 1.2231 1.9762 3.0494 5.7989 3.0494 4.2149 0 6.2342-2.2064 6.6371-2.7028l22.324-24.671-5.5363 26.329h9.7237l6.3793-30.344c0.0948-0.39811 0.56719-2.8095-1.03-4.848m-217.43 15.833h-33.941l1.9162-9.1061h33.941zm2.8155-18.033c-9.4898 0-41.815 4e-3 -41.815 4e-3h-1.2039l-7.865 37.388h10.323l2.1932-10.431h33.696l-2.216 10.549h10.043l1.6728-7.9345c0.42209-1.7052 0.47726-4.7689-1.4521-6.7546 1.5085-1.1428 3.3683-3.0218 3.9163-5.6442l1.602-7.612c0.11147-0.46406 0.85258-3.8875-1.2135-6.5664-1.5313-1.9917-4.1178-2.9978-7.6816-2.9978m62.696 0.39332-2.9558 14.066h-34.526l2.9606-14.066h-9.7716l-7.7895 37.031h9.7716l2.9558-14.056h34.525l-2.9546 14.056h9.7752l7.7847-37.031zm-162.63 27.963 1.0073-4.7869h38.479l1.9726-9.3963h-38.615l1.0348-4.914h37.983l9.9347-9.0078-3.818-0.0187c-0.29978 0-30.085-0.12234-40.422-0.12234-11.524 0-13.49 8.7272-13.509 8.8159l-3.9487 18.788c-0.54321 2.5661-0.12721 4.7209 1.2363 6.4033 2.6285 3.2364 7.8183 3.2736 8.0377 3.2736h44.087l-5.6586-9.0354zm198.06-7.6348 11.743-11.78 7.1995 11.78zm13.332-21.215c-5.2653 0-8.8483 3.9679-9.3783 4.595l-34.217 33.29h13.04l8.4034-7.8926h33.496l4.5291 7.8926h12.305l-20.456-33.58c-0.36094-0.74945-2.3515-4.3048-7.7236-4.3048m-310.08 21.215 11.738-11.78 7.2043 11.78zm13.331-21.215c-5.2701 0-8.8531 3.9727-9.3819 4.595l-34.213 33.29h13.037l8.3974-7.8926h33.501l4.5291 7.8926h12.305l-20.446-33.58c-0.36934-0.74945-2.3563-4.3048-7.7283-4.3048m25.481 0.48803-1.9018 9.0581h21.734l-5.986 28.456h10.178l5.9812-28.427h15.571l10.122-9.0869zm-114.46 28.703 4.1034-19.518h38.475l9.3208-9.2464-4.8528-0.024h-40.507c-10.615 0.38492-12.46 8.6336-12.638 9.5797l-3.5782 17.012c-0.64273 3.0493-0.17385 5.5699 1.3862 7.4897 2.7628 3.4103 7.9394 3.4522 8.1636 3.4522h43.652l-3.9259-8.7451z" fill="#153726"/>
 <path d="m153.85 55.53 0.22904-1.1008h4.1034l-0.23384 1.1008zm3.607 2.3515h6e-3l1.4186-1.4198c-0.0275-0.12589-0.0839-0.24822-0.18228-0.35613 0.18228-0.14031 0.4077-0.36454 0.47247-0.6787l0.19305-0.92332c0.0131-0.0564 0.10678-0.46765-0.14631-0.79142-0.18228-0.24341-0.49643-0.36573-0.92691-0.36573-1.1476 0-5.0543 6e-3 -5.0543 6e-3h-0.145l-0.94611 4.5159h1.2459l0.26261-1.2603h4.0746zm-6.4453-2.5254c-0.548 2.5853 1.0912 4.6981 3.6441 4.6981 2.5481 0 5.0543-2.0984 5.6023-4.6981 0.53841-2.5709-1.078-4.6981-3.5602-4.6981-2.6368 0-5.1334 2.0613-5.6862 4.6981m10.544-0.0187c-0.68468 3.2412-3.8744 5.8733-7.1108 5.8733-3.2412 0-5.3217-2.6321-4.6466-5.8553 0.6931-3.2736 3.8552-5.878 7.1803-5.878 3.1717 0 5.2462 2.656 4.577 5.8601m-32.934 3.0261h8.5197l-6.0088 28.55h10.085l7.883-37.43-10.708 0.042zm-0.95091 0.0275 9.8412-8.9034-3.6777-9e-3s-30.076-0.1272-40.564-0.1272c-11.606 0-13.485 8.708-13.499 8.7883l-6.0388 28.703h9.9491l2.9606-14.09h38.61l1.9582-9.2979h-38.751l1.0624-5.0639zm203.94 11.856h-19.279l11.954-11.986zm93.509-18.741c-1.2699-1.6152-3.4199-2.4306-6.3985-2.4306-0.5396 0-5.3589 0.12121-9.0642 4.4499l-21.341 24.338-11.279-23.275c-0.024-0.0564-2.2723-5.5975-7.9766-5.5975-5.4476 0-9.1481 3.5974-9.8652 6.9885l-6.1779 29.209-19.392-31.823c-0.0755-0.17741-1.9066-4.4128-7.7571-4.4128-5.6347 0-9.3256 4.5399-9.316 4.5435l-31.965 31.093-4.1873-6.6887h-37.969l1.0348-4.9272h38.612l1.957-9.3027h-38.751l1.0636-5.0639h38.146l9.8232-8.9046-3.6585-0.0187c-0.1272-6e-3 -30.175-0.12233-40.564-0.12233-11.612 0-13.485 8.7128-13.504 8.7919l-3.9679 18.854c-0.53361 2.5577-0.11634 4.6981 1.2375 6.3745 2.5757 3.1669 7.4657 3.2604 8.0137 3.2604h53.3l8.4322-7.9202h33.682l4.5351 7.9202h10.848l-9e-3 0.015h9.8124l5.8229-27.636 12.459 25.462c0.19785 0.62835 1.2747 3.0781 5.781 3.0781 4.6982 0 6.5856-2.6608 6.576-2.6608l22.596-24.966-5.5831 26.577h9.6301l6.3889-30.376c0.0611-0.2818 0.58997-2.7736-1.0252-4.83m-239.32-2.1728-1.879 8.9598h21.818l-6.0088 28.55h10.089l5.9956-28.516h15.653l10.001-8.9934z" fill="#96cd00"/>
</svg>
