<svg width="776" height="154" xmlns="http://www.w3.org/2000/svg" xmlns:xlink="http://www.w3.org/1999/xlink" overflow="hidden"><defs><clipPath id="clip0"><rect x="252" y="283" width="776" height="154"/></clipPath></defs><g clip-path="url(#clip0)" transform="translate(-252 -283)"><path d="M253 284 430 284 430 436 253 436Z" fill="#0101ED" fill-rule="evenodd"/><path d="M452 284 629 284 629 436 452 436Z" fill="#0101ED" fill-rule="evenodd"/><path d="M651 284 828 284 828 436 651 436Z" fill="#0101ED" fill-rule="evenodd"/><path d="M850 284 1027 284 1027 436 850 436Z" fill="#0101ED" fill-rule="evenodd"/><path d="M403 310 283 310 283 373 352.421 373 352.421 389.5 283 389.5 283 410 403 410 403 351.5 333.083 351.5 333.083 336 403 336Z" fill="#FFFF00" fill-rule="evenodd"/><path d="M600 410 600 385.259 537 385.259 537 371.34 592 371.34 592 351 537 351 537 331 600 331 600 310 488 310 488 410Z" fill="#FFFF00" fill-rule="evenodd"/><path d="M763.176 310 712.858 310 673 410 696.416 410 702.893 397 751.717 397 757.696 410 812 410 763.176 310ZM709.618 372 726.308 333 742.997 372 709.618 372Z" fill="#FFFF00" fill-rule="evenodd"/><path d="M914.137 410 914.137 330.942 883 330.942 883 310 997 310 997 330.942 965.864 330.942 965.864 410Z" fill="#FFFF00" fill-rule="evenodd"/></g></svg>