<svg xmlns="http://www.w3.org/2000/svg" xmlns:xlink="http://www.w3.org/1999/xlink" viewBox="0 0 789.96 372.79"><defs><style>.cls-1{fill:none;}.cls-2{clip-path:url(#clip-path);}.cls-3{fill:url(#Dégradé_sans_nom_59);}.cls-4{clip-path:url(#clip-path-2);}.cls-5{fill:url(#Dégradé_sans_nom_60);}.cls-6{clip-path:url(#clip-path-3);}.cls-7{fill:url(#Dégradé_sans_nom_5);}.cls-8{clip-path:url(#clip-path-4);}.cls-9{fill:url(#Dégradé_sans_nom_61);}</style><clipPath id="clip-path"><path class="cls-1" d="M591.79,6.39C559.61,12.78,533.62,26.17,512.66,44a175.27,175.27,0,0,0-16.85,16.39c-19.4,21.43-39.44,53.92-51,84.58-19.41,51.4-25.83,99.68-54.62,127-21.5,20.06,5,28.78,22.36,20.91,20.56-7.64,39.64-23.43,65.52-62.47C500,196.62,531,134.68,591,107.75c51-23.18,92.84-12.51,83,16.69a80.45,80.45,0,0,0,8.18-26.16C686,50.05,644.64,6.37,593.82,6.36c-.68,0-1.34,0-2,0"/></clipPath><linearGradient id="Dégradé_sans_nom_59" x1="652.1" y1="28.09" x2="390.5" y2="291.13" gradientUnits="userSpaceOnUse"><stop offset="0" stop-color="#3b5791"/><stop offset="1" stop-color="#8dc8ec"/></linearGradient><clipPath id="clip-path-2"><path class="cls-1" d="M648.59,186.06c-63.24,28.36-56.78,58.87-51.21,70.32a36,36,0,0,0,2.42,4.26c58.7,90.35,170.45,109.76,188,112h2.09c-63.55-57.71-128.48-159.12-106.59-200-11.16,4.34-22.79,8.77-34.67,13.41"/></clipPath><linearGradient id="Dégradé_sans_nom_60" x1="708.34" y1="-180.42" x2="715.35" y2="-180.42" gradientTransform="matrix(-10.96, -30.11, 30.11, -10.96, 13927.36, 19745.14)" gradientUnits="userSpaceOnUse"><stop offset="0" stop-color="#eb4c3a"/><stop offset="0.5" stop-color="#e1322c"/><stop offset="1" stop-color="#852424"/></linearGradient><clipPath id="clip-path-3"><path class="cls-1" d="M641.4,2.18a282.53,282.53,0,0,0-49.61,4.21c51.74-1.19,94.28,43,90.44,91.89a80.45,80.45,0,0,1-8.18,26.16c-10.12,20.48-28.13,40.59-48.32,58.72-42.09,36.91-34.45,62.1-28.34,73.23-5.57-11.44-12.07-42,51.2-70.33C733.15,153,805.53,131,782.24,72.9c-26.7-59.21-93.15-70.63-140-70.72Z"/></clipPath><linearGradient id="Dégradé_sans_nom_5" x1="695.37" y1="-157.73" x2="702.38" y2="-157.73" gradientTransform="translate(-12398.92 -20264.69) rotate(70) scale(33.78)" gradientUnits="userSpaceOnUse"><stop offset="0" stop-color="#fde51a"/><stop offset="0.01" stop-color="#fde51a"/><stop offset="0.5" stop-color="#f0ac25"/><stop offset="0.67" stop-color="#e98f2d"/><stop offset="0.92" stop-color="#e56b27"/><stop offset="1" stop-color="#e56b27"/></linearGradient><clipPath id="clip-path-4"><path class="cls-1" d="M3.05,49.29v53.87H63.48v192h60.45v-192h60.43V49.29Zm351.32,0L313.63,186.73,272.18,49.29h-62.5l81.16,245.88h44.89L417.22,49.29Z"/></clipPath><linearGradient id="Dégradé_sans_nom_61" x1="713.71" y1="-184.92" x2="720.72" y2="-184.92" gradientTransform="translate(37414.67 22115.79) rotate(-135) scale(58.35)" gradientUnits="userSpaceOnUse"><stop offset="0" stop-color="#9d9d9c"/><stop offset="0.25" stop-color="#d0d0d0"/><stop offset="0.5" stop-color="#e7e7e7"/><stop offset="0.75" stop-color="#d0d0d0"/><stop offset="1" stop-color="#9d9d9c"/></linearGradient></defs><g id="Layer_1" data-name="Layer 1"><g class="cls-2"><polygon class="cls-3" points="221.52 153.52 527.35 -152.31 833.18 153.52 527.35 459.35 221.52 153.52"/></g><g class="cls-4"><polygon class="cls-5" points="609.27 438.33 521.08 196.04 765.93 106.93 854.12 349.21 609.27 438.33"/></g><g class="cls-6"><polygon class="cls-7" points="779.57 -69.14 887.23 226.65 609.6 327.7 501.94 31.91 779.57 -69.14"/></g></g><g id="Calque_3" data-name="Calque 3"><g class="cls-8"><polygon class="cls-9" points="210.14 502.26 -119.89 172.23 210.14 -157.8 540.17 172.23 210.14 502.26"/></g></g></svg>